<svg height="200" width="200"  version="1.1" xmlns="http://www.w3.org/2000/svg" xmlns:xlink="http://www.w3.org/1999/xlink">
  <polyline points="10,10 20,10 20,190 10,190 10,180 190,180 190,190 180,190 180,10 190,10 190,20 10,20 10,10, 20,10" 
  style="fill:none;stroke:black;stroke-width:2" />
  
     <polyline points="10,30 40,30 40,40 30,40 30,10 170,10 170,40 160,40 160,30 190,30 190,170 160,170 160,160 170,160 170,190 30,190 30,160 40,160 40,170 10,170 10,30 30,30" style="fill: none; stroke:black;stroke-width:3" />
  
  
  
  
  Sorry, your browser does not support inline SVG.
</svg>